<svg width="34" height="34" viewBox="0 0 34 34" fill="none" xmlns="http://www.w3.org/2000/svg">
<rect width="34" height="34" rx="17" fill="#A2A2A2"/>
<path d="M17 7.07178C18.778 7.08436 20.5209 7.56844 22.0507 8.4746C23.5805 9.38076 24.8426 10.6766 25.708 12.2298C26.4726 13.6234 26.8914 15.1802 26.9293 16.7693C26.9671 18.3584 26.623 19.9333 25.9257 21.3618C25.2284 22.7903 24.1984 24.0304 22.9222 24.9781C21.6461 25.9258 20.1611 26.5533 18.592 26.8078C16.9761 27.0708 15.3202 26.9305 13.7717 26.3991C12.2231 25.8677 10.8299 24.9619 9.71589 23.7621C8.60192 22.5623 7.78399 20.8516 7.50001 19.9998C7.11201 18.8359 7 17.9998 7 17.4998C8 17.4998 7 17.4998 8 17.4998C8 17.4998 8.00006 18.4997 8.50005 19.9998C9.00003 21.4998 10.1398 22.965 11.468 24.0268C12.5854 24.9069 13.8966 25.5077 15.2929 25.7792C16.6891 26.0507 18.13 25.985 19.4957 25.5876C20.8614 25.1903 22.1126 24.4727 23.1453 23.4946C24.1779 22.5164 24.9623 21.306 25.433 19.9638C25.9055 18.6166 26.0483 17.1758 25.8494 15.7621C25.6505 14.3484 25.1158 13.0029 24.2899 11.8383C23.4641 10.6738 22.3713 9.72405 21.1029 9.06873C19.8346 8.4134 18.4277 7.99958 17 7.99982" stroke="#F8F8F8" stroke-width="2"/>
<path d="M12.3999 13.1172L16.6429 17.3592M13.1069 12.4102L17.3499 16.6522" stroke="#F8F8F8" stroke-width="2"/>
</svg>
