<svg width="33" height="34" viewBox="0 0 33 34" fill="none" xmlns="http://www.w3.org/2000/svg">
<path d="M0 0H16C21.5953 0 24.3929 0 26.5696 0.994048C28.9766 2.0933 30.9067 4.02341 32.006 6.43043C33 8.6071 33 11.4047 33 17V17C33 22.5953 33 25.3929 32.006 27.5696C30.9067 29.9766 28.9766 31.9067 26.5696 33.006C24.3929 34 21.5953 34 16 34H0V0Z" fill="#A2A2A2"/>
<path d="M5.81913 13.7379L5.6513 13.9138L5.82244 14.0865L15.8224 24.176L16 24.3551L16.1776 24.176L26.1776 14.0865L26.3487 13.9138L26.1809 13.7379L24.358 11.8274L24.1805 11.6414L23.9995 11.824L16 19.8952L8.00047 11.824L7.8195 11.6414L7.64204 11.8274L5.81913 13.7379Z" fill="white" stroke="white" stroke-width="0.5"/>
</svg>
