<svg width="36" height="38" viewBox="0 0 36 38" fill="none" xmlns="http://www.w3.org/2000/svg">
<path d="M18 3.61905C16.5398 3.61905 15.1394 4.19099 14.1069 5.20904C13.0744 6.22709 12.4943 7.60787 12.4943 9.04762V19.9048C12.4943 21.3445 13.0744 22.7253 14.1069 23.7433C15.1394 24.7614 16.5398 25.3333 18 25.3333C19.4602 25.3333 20.8606 24.7614 21.8931 23.7433C22.9256 22.7253 23.5057 21.3445 23.5057 19.9048V9.04762C23.5057 7.60787 22.9256 6.22709 21.8931 5.20904C20.8606 4.19099 19.4602 3.61905 18 3.61905ZM18 0C19.205 0 20.3983 0.234024 21.5116 0.688709C22.6249 1.14339 23.6365 1.80984 24.4885 2.64999C25.3406 3.49014 26.0165 4.48754 26.4777 5.58525C26.9388 6.68295 27.1762 7.85947 27.1762 9.04762V19.9048C27.1762 22.3043 26.2094 24.6056 24.4885 26.3024C22.7677 27.9992 20.4337 28.9524 18 28.9524C15.5663 28.9524 13.2323 27.9992 11.5115 26.3024C9.79059 24.6056 8.82382 22.3043 8.82382 19.9048V9.04762C8.82382 6.64804 9.79059 4.34674 11.5115 2.64999C13.2323 0.953229 15.5663 0 18 0ZM0 23.455L3.60073 22.7439C4.26948 26.0236 6.06918 28.9738 8.69408 31.0934C11.319 33.213 14.6072 34.3711 18 34.3711C21.3928 34.3711 24.681 33.213 27.3059 31.0934C29.9308 28.9738 31.7305 26.0236 32.3993 22.7439L36 23.4532C34.3263 31.7481 26.9046 38 18 38C9.09543 38 1.67374 31.7499 0 23.455Z" fill="#F8F8F8"/>
</svg>
