<svg width="40" height="40" viewBox="0 0 40 40" fill="none" xmlns="http://www.w3.org/2000/svg">
<path d="M19.9857 21.4319C19.7574 21.4319 19.5576 21.3748 19.3578 21.2891L0.80506 12.005C0.563773 11.888 0.360283 11.7054 0.2179 11.4781C0.075517 11.2507 0 10.9878 0 10.7195C0 10.4512 0.075517 10.1883 0.2179 9.96095C0.360283 9.7336 0.563773 9.55099 0.80506 9.43403L19.3578 0.149973C19.7574 -0.0499911 20.2426 -0.0499911 20.6422 0.149973L39.1949 9.43403C39.4362 9.55099 39.6397 9.7336 39.7821 9.96095C39.9245 10.1883 40 10.4512 40 10.7195C40 10.9878 39.9245 11.2507 39.7821 11.4781C39.6397 11.7054 39.4362 11.888 39.1949 12.005L20.6422 21.2891C20.4424 21.4033 20.2141 21.4319 20.0143 21.4319H19.9857ZM4.62978 10.7195L19.9857 18.4039L35.3417 10.7195L19.9857 3.03517L4.62978 10.7195Z" fill="#F8F8F8"/>
<path d="M19.9857 30.7159C19.7574 30.7159 19.5576 30.6588 19.3578 30.5731L0.80506 21.289C0.563773 21.1721 0.360283 20.9895 0.2179 20.7621C0.075517 20.5348 0 20.2719 0 20.0036C0 19.7352 0.075517 19.4724 0.2179 19.245C0.360283 19.0177 0.563773 18.835 0.80506 18.7181L10.0814 14.0903C10.795 13.7475 11.6513 14.0332 11.9938 14.7188C12.3363 15.433 12.0509 16.2899 11.3658 16.6327L4.62978 20.0036L19.9857 27.6879L35.3417 20.0036L28.6056 16.6327C28.4365 16.5509 28.2856 16.4358 28.1618 16.2943C28.0381 16.1528 27.9442 15.9878 27.8856 15.8092C27.827 15.6306 27.8049 15.442 27.8207 15.2546C27.8366 15.0673 27.8899 14.885 27.9777 14.7188C28.3202 14.0046 29.1765 13.719 29.89 14.0903L39.1664 18.7181C39.4077 18.835 39.6112 19.0177 39.7536 19.245C39.8959 19.4724 39.9715 19.7352 39.9715 20.0036C39.9715 20.2719 39.8959 20.5348 39.7536 20.7621C39.6112 20.9895 39.4077 21.1721 39.1664 21.289L20.6137 30.5731C20.4139 30.6874 20.1855 30.7159 19.9857 30.7159Z" fill="#F8F8F8"/>
<path d="M19.9857 40C19.7574 40 19.5576 39.9429 19.3578 39.8572L0.80506 30.5731C0.563773 30.4562 0.360283 30.2735 0.2179 30.0462C0.075517 29.8188 0 29.5559 0 29.2876C0 29.0193 0.075517 28.7564 0.2179 28.5291C0.360283 28.3017 0.563773 28.1191 0.80506 28.0021L10.0814 23.3744C10.795 23.0316 11.6513 23.3173 11.9938 24.0028C12.3363 24.717 12.0509 25.574 11.3658 25.9168L4.62978 29.2876L19.9857 36.972L35.3417 29.2876L28.6056 25.9168C28.4365 25.835 28.2856 25.7199 28.1618 25.5784C28.0381 25.4369 27.9442 25.2719 27.8856 25.0933C27.827 24.9146 27.8049 24.726 27.8207 24.5387C27.8366 24.3513 27.8899 24.1691 27.9777 24.0028C28.3202 23.2887 29.1765 23.003 29.89 23.3744L39.1664 28.0021C39.4077 28.1191 39.6112 28.3017 39.7536 28.5291C39.8959 28.7564 39.9715 29.0193 39.9715 29.2876C39.9715 29.5559 39.8959 29.8188 39.7536 30.0462C39.6112 30.2735 39.4077 30.4562 39.1664 30.5731L20.6137 39.8572C20.4139 39.9714 20.1855 40 19.9857 40Z" fill="#F8F8F8"/>
</svg>
