<svg width="20" height="18" viewBox="0 0 20 18" fill="none" xmlns="http://www.w3.org/2000/svg">
<path d="M18.5157 17.4977H18H17.9985H17.9969H17.9954H17.9939H17.9925H17.991H17.9895H17.9881H17.9866H17.9852H17.9838H17.9824H17.981H17.9796H17.9782H17.9769H17.9755H17.9742H17.9729H17.9716H17.9703H17.969H17.9677H17.9664H17.9652H17.9639H17.9627H17.9615H17.9602H17.959H17.9578H17.9567H17.9555H17.9543H17.9532H17.952H17.9509H17.9498H17.9487H17.9476H17.9465H17.9454H17.9443H17.9433H17.9422H17.9412H17.9402H17.9391H17.9381H17.9371H17.9361H17.9351H17.9342H17.9332H17.9323H17.9313H17.9304H17.9295H17.9285H17.9276H17.9267H17.9258H17.925H17.9241H17.9232H17.9224H17.9215H17.9207H17.9199H17.9191H17.9183H17.9175H17.9167H17.9159H17.9151H17.9144H17.9136H17.9128H17.9121H17.9114H17.9107H17.9099H17.9092H17.9085H17.9078H17.9072H17.9065H17.9058H17.9052H17.9045H17.9039H17.9032H17.9026H17.902H17.9014H17.9008H17.9002H17.8996H17.899H17.8984H17.8979H17.8973H17.8967H17.8962H17.8957H17.8951H17.8946H17.8941H17.8936H17.8931H17.8926H17.8921H17.8916H17.8911H17.8907H17.8902H17.8897H17.8893H17.8888H17.8884H17.888H17.8875H17.8871H17.8867H17.8863H17.8859H17.8855H17.8851H17.8847H17.8844H17.884H17.8836H17.8833H17.8829H17.8826H17.8822H17.8819H17.8816H17.8812H17.8809H17.8806H17.8803H17.88H17.8797H17.8794H17.8791H17.8788H17.8786H17.8783H17.878H17.8778H17.8775H17.8773H17.877H17.8768H17.8765H17.8763H17.8761H17.8759H17.8756H17.8754H17.8752H17.875H17.8748H17.8746H17.8744H17.8742H17.874H17.8739H17.8737H17.8735H17.8734H17.8732H17.873H17.8729H17.8727H17.8726H17.8724H17.8723H17.8722H17.872H17.8719H17.8718H17.8716H17.8715H17.8714H17.8713H17.8712H17.8711H17.871H17.8709H17.8708H17.8707H17.8706H17.8705H17.8704H17.8703H17.8702H17.8702H17.8701H17.87H17.8699H17.8699H17.8698H17.8698H17.8697H17.8696H17.8696H17.8695H17.8695H17.8694H17.8694H17.8693H17.8693H17.8693H17.8692H17.8692H17.8691H17.8691H17.8691H17.8691H17.869H17.869H17.869H17.8689H17.8689H17.8689H17.8689H17.8689H17.8689H17.8688H17.8688H17.8688H17.8688H17.8687H17.8687H17.8687H17.8687H17.8687H17.8687H17.8686H17.8686H17.8686H17.8686H17.8686H17.8685H17.8685H17.8685H17.8685H17.8685H17.8684H17.8684H17.8684H17.8684H17.8683H17.8683H17.8683H17.8682H17.8682H17.8681H17.8681H17.868H17.868H17.868H17.8679H17.8679H17.8678H17.8677H17.8677H17.8676H17.8675H17.8675H17.8674H17.8673H17.8673H17.8672H17.8671H17.867H17.8669H17.8668H17.8668H17.8667H17.8666H17.8665H17.8664H17.8663H17.8661H17.866H17.8659H17.8658H17.8657H17.8655H17.8654H17.8653H17.8651H17.865H17.8649H17.8647H17.8646H17.8644H17.8642H17.8641H17.8639H17.8637H17.8636H17.8634H17.8632H17.863H17.8628H17.8626H17.8624H17.8622H17.862H17.8618H17.8616H17.8614H17.8611H17.8609H17.8607H17.8604H17.8602H17.8599H17.8597H17.8594H17.8591H17.8589H17.8586H17.8583H17.858H17.8577H17.8574H17.8571H17.8568H17.8565H17.8562H17.8559H17.8555H17.8552H17.8549H17.8545H17.8542H17.8538H17.8534H17.8531H17.8527H17.8523H17.8519H17.8515H17.8511H17.8507H17.8503H17.8499H17.8495H17.849H17.8486H17.8482H17.8477H17.8472H17.8468H17.8463H17.8458H17.8453H17.8449H17.8444H17.8439H17.8433H17.8428H17.8423H17.8418H17.8412H17.8407H17.8401H17.8396H17.839H17.8384H17.8379H17.8373H17.8367H17.8361H17.8354H17.8348H17.8342H17.8336H17.8329H17.8323H17.8316H17.8309H17.8303H17.8296H17.8289H17.8282H17.8275H17.8268H17.8261H17.8253H17.8246H17.8238H17.8231H17.8223H17.8215H17.8208H17.82H17.8192H17.8184H17.8175H17.8167H17.8159H17.815H17.8142H17.8133H17.8125H17.8116H17.8107H17.8098H17.8089H17.808H17.807H17.8061H17.8052H17.8042H17.8033H17.8023H17.8013H17.8003H17.7993H17.7983H17.7973H17.7962H17.7952H17.7942H17.7931H17.792H17.7909H17.7899H17.7888H17.7876H17.7865H17.7854H17.7843H17.7831H17.7819H17.7808H17.7796H17.7784H17.7772H17.776H17.7747H17.7735H17.7723H17.771H17.7697H17.7685H17.7672H17.7659H17.7645H17.7632H17.7619H17.7605H17.7592H17.7578H17.7564H17.755H17.7536H17.7522H17.7508H17.7494H17.7479H17.7464H17.745H17.7435H17.742H17.7405H17.739H17.7374C17.5455 17.4977 17.4893 17.4965 17.458 17.4957C17.4565 17.4956 17.4556 17.4956 17.4547 17.4956C17.4501 17.4953 17.4489 17.4953 17.3731 17.4975L17.3583 17.498C17.289 17.5 17.2734 17.5005 17.2348 17.4995L17.2336 17.4994C17.2144 17.4989 17.1684 17.4977 16.9911 17.4977H16.9891H16.9872H16.9853H16.9842H16.9842H16.9841H16.9841H16.984H16.9839H16.9838H16.9837H16.9836H16.9835H16.9835H16.9835H16.9834H16.9834H16.9833H16.9832H16.9831H16.983H16.983H16.9829H16.9828H16.9827H16.9826H16.9825H16.9824H16.9823H16.9822H16.982H16.9818H16.9818H16.9816H16.9816H16.9815H16.9813H16.9812H16.9811H16.981H16.9808H16.9807H16.9806H16.9803H16.9803H16.98H16.98H16.9798H16.9797H16.9797H16.9795H16.9793H16.9791H16.9789H16.9788H16.9785H16.9785H16.9782H16.9781H16.978H16.9778H16.9777H16.9775H16.9773H16.9772H16.9768H16.9768H16.9764H16.9764H16.9763H16.9761H16.9759H16.9757H16.9754H16.9753H16.9749H16.9749H16.9745H16.9745H16.9744H16.9741H16.9738H16.9737H16.9733H16.9732H16.9728H16.9727H16.9724H16.9721H16.9719H16.9715H16.9715H16.9711H16.971H16.9709H16.9706H16.9703H16.9701H16.9696H16.9696H16.9694H16.9692H16.9689H16.9687H16.9682H16.9682H16.9678H16.9677H16.9675H16.9672H16.9668H16.9667H16.9662H16.9661H16.9661H16.9657H16.9653H16.9652H16.9646H16.9645H16.9645H16.9641H16.9638H16.9636H16.963H16.9629H16.9625H16.9621H16.9619H16.9614H16.9614H16.9613H16.9608H16.9604H16.9603H16.9598H16.9597H16.9595H16.9592H16.9586H16.9586H16.9583H16.958H16.9577H16.9575H16.9569H16.9568H16.9563H16.9558H16.9557H16.9553H16.9551H16.9549H16.9546H16.954H16.9539H16.9538H16.9534H16.9529H16.9528H16.9524H16.9522H16.9518H16.9516H16.951H16.951H16.9508H16.9504H16.9498H16.9497H16.9496H16.9492H16.9486H16.9486H16.9482H16.9479H16.9475H16.9473H16.9469H16.9467H16.9464H16.9461H16.9455H16.9455H16.9453H16.9449H16.9443H16.9442H16.9441H16.9436H16.943H16.9429H16.9424H16.9418H16.9417H16.9416H16.9412H16.9405H16.9405H16.9404H16.9399H16.9393H16.9392H16.9392H16.9387H16.9381H16.938H16.9379H16.9375H16.9368H16.9368H16.9367H16.9362H16.9356H16.9356H16.9354H16.935H16.9344H16.9344H16.9341H16.9338H16.9333H16.9331H16.9327H16.9325H16.9322H16.9319H16.9314H16.9313H16.9311H16.9307H16.9301H16.93H16.93H16.9295H16.9289H16.9289H16.9286H16.9283H16.9279H16.9277H16.9271H16.9271H16.9269H16.9265H16.9259H16.9259H16.9257H16.9253H16.9249H16.9247H16.9242H16.9242H16.9239H16.9236H16.923H16.9227H16.9224H16.9221H16.9219H16.9213H16.9212H16.9212H16.9207H16.9203H16.9202H16.9197H16.9196H16.9194H16.919H16.9185H16.9185H16.9181H16.918H16.9177H16.9174H16.9169H16.9169H16.9166H16.9163H16.9161H16.9158H16.9153H16.9153H16.915H16.9148H16.9145H16.9142H16.9138H16.9137H16.9133H16.9132H16.9131H16.9127H16.9123H16.9122H16.9117H16.9117H16.9116H16.9113H16.911H16.9108H16.9103H16.91H16.9098H16.9097H16.9094H16.909H16.9089H16.9085H16.9084H16.9083H16.908H16.9078H16.9076H16.9072H16.9072H16.9067H16.9067H16.9066H16.9063H16.9061H16.9059H16.9056H16.9055H16.9051H16.9051H16.9049H16.9047H16.9046H16.9043H16.9041H16.9039H16.9036H16.9036H16.9032H16.9031H16.9031H16.9029H16.9027H16.9025H16.9023H16.9022H16.9019H16.9018H16.9015H16.9015H16.9014H16.9012H16.9011H16.9009H16.9007H16.9006H16.9004H16.9003H16.9H16.9H16.8997H16.8997H16.8996H16.8995H16.8994H16.8992H16.8991H16.899H16.8988H16.8987H16.8986H16.8985H16.8983H16.8983H16.8981H16.8979H16.8978H16.8977H16.8977H16.8976H16.8975H16.8974H16.8973H16.8973H16.8972H16.8971H16.897H16.8969H16.8969H16.8968H16.8967H16.8966H16.8966H16.8965H16.8965H16.8964H16.8963H16.8962H16.8962H16.8961H16.8961H16.896H16.896H16.8959H16.894H16.8921H16.8902H16.8883H16.8863H16.8843H16.8823H16.8803H16.8782H16.8761H16.874H16.8719H16.8697H16.8675H16.8653H16.8631H16.8608H16.8585H16.8562H16.8539H16.8515H16.8492H16.8468H16.8443H16.8419H16.8394H16.8369H16.8343H16.8318H16.8292H16.8266H16.8239H16.8212H16.8185H16.8158H16.8131H16.8103H16.8075H16.8046H16.8018H16.7989H16.796H16.793H16.7901H16.7871H16.784H16.781H16.7779H16.7748H16.7717H16.7685H16.7653H16.7621H16.7588H16.7555H16.7522H16.7489H16.7455H16.7421H16.7387H16.7352H16.7317H16.7282H16.7246H16.721H16.7174H16.7138H16.7101H16.7064H16.7027H16.6989H16.6951H16.6913H16.6874H16.6836H16.6796H16.6757H16.6717H16.6677H16.6636H16.6596H16.1748L16.1598 17.0132C16.111 15.4394 15.442 13.9445 14.2921 12.846C13.142 11.7472 11.6012 11.1314 9.996 11.1314C8.39077 11.1314 6.85001 11.7472 5.69991 12.846C4.54717 13.9473 3.87826 15.4048 3.82955 16.9747L3.81452 17.4592H3.32979H3.32792H3.32607H3.32422H3.32239H3.32057H3.31875H3.31695H3.31517H3.31339H3.31162H3.30986H3.30812H3.30638H3.30465H3.30294H3.30124H3.29954H3.29786H3.29619H3.29453H3.29287H3.29123H3.2896H3.28798H3.28637H3.28477H3.28318H3.2816H3.28003H3.27847H3.27692H3.27538H3.27385H3.27233H3.27082H3.26932H3.26783H3.26635H3.26488H3.26342H3.26197H3.26053H3.2591H3.25767H3.25626H3.25486H3.25346H3.25208H3.2507H3.24934H3.24798H3.24663H3.2453H3.24397H3.24265H3.24134H3.24004H3.23874H3.23746H3.23618H3.23492H3.23366H3.23241H3.23117H3.22994H3.22872H3.22751H3.22631H3.22511H3.22392H3.22274H3.22158H3.22041H3.21926H3.21812H3.21698H3.21585H3.21473H3.21362H3.21252H3.21142H3.21034H3.20926H3.20819H3.20713H3.20607H3.20503H3.20399H3.20296H3.20193H3.20092H3.19991H3.19891H3.19792H3.19694H3.19596H3.19499H3.19403H3.19308H3.19213H3.19119H3.19026H3.18934H3.18842H3.18751H3.18661H3.18572H3.18483H3.18395H3.18308H3.18221H3.18135H3.1805H3.17966H3.17882H3.17799H3.17716H3.17635H3.17553H3.17473H3.17393H3.17314H3.17236H3.17158H3.17081H3.17005H3.16929H3.16854H3.1678H3.16706H3.16633H3.1656H3.16488H3.16417H3.16346H3.16276H3.16207H3.16138H3.1607H3.16002H3.15935H3.15869H3.15803H3.15738H3.15673H3.15609H3.15546H3.15483H3.1542H3.15359H3.15298H3.15237H3.15177H3.15117H3.15058H3.15H3.14942H3.14885H3.14828H3.14771H3.14716H3.1466H3.14606H3.14551H3.14498H3.14445H3.14392H3.1434H3.14288H3.14237H3.14186H3.14136H3.14086H3.14037H3.13988H3.1394H3.13892H3.13845H3.13798H3.13751H3.13705H3.1366H3.13615H3.1357H3.13526H3.13482H3.13438H3.13396H3.13353H3.13311H3.13269H3.13228H3.13187H3.13147H3.13107H3.13067H3.13028H3.12989H3.1295H3.12912H3.12875H3.12837H3.128H3.12764H3.12727H3.12692H3.12656H3.12621H3.12586H3.12552H3.12518H3.12484H3.1245H3.12417H3.12384H3.12352H3.1232H3.12288H3.12257H3.12225H3.12195H3.12164H3.12134H3.12104H3.12074H3.12045H3.12015H3.11987H3.11958H3.1193H3.11902H3.11874H3.11847H3.11819H3.11792H3.11766H3.11739H3.11713H3.11687H3.11661H3.11636H3.1161H3.11585H3.1156H3.11536H3.11511H3.11487H3.11463H3.11439H3.11416H3.11392H3.11369H3.11346H3.11323H3.11301H3.11278H3.11256H3.11234H3.11212H3.1119H3.11169H3.11147H3.11126H3.11105H3.11084H3.11063H3.11042H3.11021H3.11001H3.10981H3.1096H3.1094H3.1092H3.109H3.10881H3.10861H3.10842H3.10822H3.10803H3.10783H3.10764H3.10745H3.10726H3.10707H3.10688H3.10669H3.10651H3.10632H3.10613H3.10595H3.10576H3.10558H3.10539H3.10521H3.10503H3.10484H3.10466H3.10448H3.1043H3.10411H3.10393H3.10375H3.10357H3.10338H3.1032H3.10302H3.10284H3.10266H3.10247H3.10229H3.10211H3.10192H3.10174H3.10156H3.10137H3.10119H3.101H3.10082H3.10063H3.10045H3.10026H3.10007H3.09988H3.09969H3.0995H3.09931H3.09912H3.09893H3.09873H3.09854H3.09835H3.09815H3.09795H3.09775H3.09755H3.09735H3.09715H3.09695H3.09674H3.09654H3.09633H3.09612H3.09591H3.0957H3.09549H3.09528H3.09506H3.09484H3.09463H3.0944H3.09418H3.09396H3.09373H3.09351H3.09328H3.09304H3.09281H3.09258H3.09234H3.0921H3.09186H3.09162H3.09137H3.09112H3.09087H3.09062H3.09037H3.09011H3.08985H3.08959H3.08933H3.08906H3.08879H3.08852H3.08825H3.08797H3.08769H3.08741H3.08712H3.08684H3.08655H3.08625H3.08596H3.08566H3.08536H3.08505H3.08474H3.08443H3.08412H3.0838H3.08348H3.08316H3.08283H3.0825H3.08217H3.08183H3.08149H3.08115H3.0808H3.08045H3.0801H3.07974H3.07938H3.07902H3.07865H3.07828H3.0779H3.07752H3.07714H3.07675H3.07636H3.07596H3.07557H3.07516H3.07476H3.07434H3.07393H3.07351H3.07309H3.07266H3.07223H3.07179H3.07135H3.0709H3.07045H3.07H3.06954H3.06908H3.06861H3.06814H3.06766H3.06718H3.0667H3.0662H3.06571H3.06521H3.0647H3.06419H3.06368H3.06316H3.06263H3.0621H3.06157H3.06103H3.06048H3.05993H3.05938H3.05881H3.05825H3.05768H3.0571H3.05652H3.05593H3.05534H3.05474H3.05413H3.05352H3.05291H3.05229H3.05166H3.05103H3.05039H3.04974H3.04909H3.04844H3.04778H3.04711H3.04644H3.04576H3.04507H3.04438H3.04368H3.04298H3.04226H3.04155H3.04083H3.0401H3.03936H3.03862H3.03787H3.03711H3.03635H3.03559H3.03481H3.03403H3.03324H3.03245H3.03165H3.03084H3.03002H3.0292H3.02837H3.02754H3.0267H3.02585H3.02499H3.02413H3.02326H3.02238H3.0215H3.0206H3.0197H3.0188H3.01788H3.01696H3.01604H3.0151H3.01416H3.01321H3.01225H3.01128H3.01031C2.84631 17.4592 2.80731 17.4604 2.79249 17.4608L2.79126 17.4609C2.75521 17.462 2.7378 17.4615 2.67177 17.4595L2.65371 17.459C2.57635 17.4568 2.57533 17.4569 2.57329 17.457C2.57291 17.4571 2.5725 17.4571 2.57155 17.4571C2.54214 17.4579 2.49093 17.4592 2.30897 17.4592L18.5157 17.4977ZM18.5157 17.4977L18.4998 16.9823C18.448 15.3091 17.8823 13.6492 16.8875 12.2907C16.0639 11.1658 14.9732 10.2643 13.7173 9.66097M18.5157 17.4977L13.7173 9.66097M13.7173 9.66097C14.1707 9.23404 14.5471 8.73055 14.8272 8.17171C15.2393 7.34951 15.4288 6.43584 15.377 5.51951C15.3251 4.60319 15.0337 3.71616 14.5316 2.94449C14.0296 2.17287 13.3341 1.54307 12.5134 1.11545C11.6928 0.68785 10.7744 0.476704 9.84722 0.502039C8.92005 0.527374 8.01483 0.788354 7.21935 1.2602C6.42383 1.73208 5.76475 2.39905 5.30679 3.19708C4.84881 3.99516 4.60775 4.89686 4.60756 5.81462L5.10756 5.81473C5.10739 6.59964 5.302 7.37269 5.67443 8.06659C6.04687 8.76049 6.58585 9.3542 7.24444 9.79603C5.7443 10.338 4.44317 11.3099 3.50852 12.5865C2.67327 13.7273 2.16487 15.0648 2.03157 16.4592H2.03034H2.02877H2.02719H2.02559H2.02398H2.02236H2.02072H2.01907H2.0174H2.01572H2.01403H2.01233H2.01061H2.00887H2.00713H2.00537H2.00359H2.0018H2V16.9592L1.50024 16.9438L1.48435 17.4592H2H2.0018H2.00359H2.00537H2.00713H2.00887H2.01061H2.01233H2.01403H2.01572H2.0174H2.01907H2.02072H2.02236H2.02398H2.02559H2.02719H2.02877H2.03034H2.0319H2.03345H2.03498H2.0365H2.038H2.0395H2.04098H2.04244H2.0439H2.04534H2.04677H2.04819H2.04959H2.05098H2.05236H2.05373H2.05509H2.05643H2.05776H2.05908H2.06038H2.06168H2.06296H2.06423H2.06549H2.06674H2.06797H2.0692H2.07041H2.07161H2.0728H2.07398H2.07514H2.0763H2.07744H2.07858H2.0797H2.08081H2.08191H2.083H2.08407H2.08514H2.08619H2.08724H2.08827H2.0893H2.09031H2.09131H2.0923H2.09329H2.09426H2.09522H2.09617H2.09711H2.09804H2.09896H2.09987H2.10077H2.10166H2.10254H2.10341H2.10427H2.10512H2.10596H2.10679H2.10761H2.10843H2.10923H2.11002H2.11081H2.11158H2.11235H2.1131H2.11385H2.11459H2.11532H2.11604H2.11675H2.11745H2.11815H2.11883H2.11951H2.12018H2.12084H2.12149H2.12213H2.12276H2.12339H2.12401H2.12461H2.12522H2.12581H2.12639H2.12697H2.12754H2.1281H2.12865H2.1292H2.12974H2.13026H2.13079H2.1313H2.13181H2.13231H2.1328H2.13329H2.13376H2.13423H2.1347H2.13515H2.1356H2.13604H2.13648H2.13691H2.13733H2.13774H2.13815H2.13855H2.13895H2.13933H2.13972H2.14009H2.14046H2.14082H2.14118H2.14153H2.14187H2.14221H2.14254H2.14286H2.14318H2.1435H2.1438H2.1441H2.1444H2.14469H2.14498H2.14525H2.14553H2.1458H2.14606H2.14632H2.14657H2.14681H2.14706H2.14729H2.14752H2.14775H2.14797H2.14819H2.1484H2.14861H2.14881H2.149H2.1492H2.14939H2.14957H2.14975H2.14992H2.15009H2.15026H2.15042H2.15058H2.15073H2.15088H2.15103H2.15117H2.1513H2.15144H2.15157H2.15169H2.15182H2.15193H2.15205H2.15216H2.15227H2.15237H2.15247H2.15257H2.15267H2.15276H2.15285H2.15293H2.15301H2.15309H2.15317H2.15324H2.15331H2.15338H2.15344H2.15351H2.15357H2.15362H2.15368H2.15373H2.15378H2.15383H2.15387H2.15392H2.15396H2.154H2.15403H2.15407H2.1541H2.15413H2.15416H2.15419H2.15422H2.15424H2.15426H2.15428H2.1543H2.15432H2.15434H2.15435H2.15437H2.15438H2.15439H2.1544H2.15441H2.15442H2.15443H2.15443H2.15444H2.15444H2.15445H2.15446H2.15446H2.15446H2.15447H2.15448H2.15448H2.15449H2.15449H2.1545H2.1545H2.15451H2.15452H2.15453H2.15454H2.15455H2.15457H2.15458H2.15459H2.15461H2.15463H2.15465H2.15467H2.15469H2.15472H2.15474H2.15477H2.1548H2.15483H2.15486H2.1549H2.15494H2.15497H2.15502H2.15506H2.1551H2.15515H2.1552H2.15525H2.15531H2.15537H2.15543H2.15549H2.15555H2.15562H2.15569H2.15576H2.15584H2.15592H2.156H2.15609H2.15618H2.15627H2.15636H2.15646H2.15656H2.15667H2.15677H2.15689H2.157H2.15712H2.15724H2.15737H2.1575H2.15763H2.15777H2.15791H2.15805H2.1582H2.15836H2.15851H2.15868H2.15884H2.15901H2.15919H2.15937H2.15955H2.15974H2.15993H2.16013H2.16033H2.16054H2.16075H2.16096H2.16119H2.16141H2.16164H2.16188H2.16212H2.16237H2.16262H2.16288H2.16314H2.16341H2.16368H2.16396H2.16425H2.16454H2.16483H2.16513H2.16544H2.16576H2.16607H2.1664H2.16673H2.16707H2.16741H2.16776H2.16812H2.16848H2.16885H2.16922H2.16961H2.16999H2.17039H2.17079H2.1712H2.17161H2.17203H2.17246H2.1729H2.17334H2.17379H2.17424H2.17471H2.17518H2.17566H2.17614H2.17663H2.17713H2.17764H2.17816H2.17868H2.17921H2.17975H2.18029H2.18084H2.1814H2.18197H2.18255H2.18314H2.18373H2.18433H2.18494H2.18556H2.18618H2.18682H2.18746H2.18811H2.18877H2.18944H2.19011H2.1908H2.19149H2.1922H2.19291H2.19363H2.19436H2.1951H2.19584H2.1966H2.19737H2.19814H2.19893H2.19972H2.20052H2.20134H2.20216H2.20299H2.20383H2.20468H2.20554H2.20641H2.20729H2.20818H2.20908H2.20999H2.21091H2.21184H2.21278H2.21373H2.21469H2.21567H2.21665H2.21764H2.21864H2.21966H2.22068H2.22171H2.22276H2.22381H2.22488H2.22596H2.22705H2.22815H2.22926H2.23038H2.23151H2.23266L13.7173 9.66097Z" fill="#838383" stroke="#838383"/>
</svg>
