<svg width="649" height="72" viewBox="0 0 649 72" fill="none" xmlns="http://www.w3.org/2000/svg">
<g opacity="0.91">
<path d="M579.989 71.9423C580.013 71.9105 588.844 61.1105 599.613 47.9423L619.192 24H632.57L632.554 72.0001H621.618V64.3082H618.492C616.773 64.3082 611.814 64.3181 607.473 64.3301L599.58 64.3521L593.338 71.9958L586.641 71.9979C580.268 72 579.947 71.9969 579.989 71.9423ZM621.607 53.5023C621.613 53.4961 621.615 49.8767 621.61 45.4592L621.602 37.4274L615.031 45.46C611.417 49.8779 608.454 53.5071 608.447 53.5248C608.435 53.5545 621.578 53.5319 621.607 53.5023ZM637.064 24H648V72.0001H637.064V24ZM528 24H613.115L611.42 26.0721C610.488 27.2118 601.681 37.9746 591.85 49.9896L573.974 71.835H559.639V55.758H554.966V71.835H551.332L551.331 66.7593C551.33 60.8924 551.326 60.7887 551.039 59.6362C550.428 57.1787 548.927 55.8812 546.221 55.471C545.655 55.3853 543.854 55.3851 543.316 55.471C541.814 55.7102 540.564 56.2277 539.658 56.9856L539.422 57.1824V49.684H534.75V71.8353H528V24ZM558.193 53.9287C558.644 53.7905 558.903 53.6377 559.202 53.3331C559.648 52.879 559.833 52.4047 559.833 51.7139C559.833 50.5673 559.215 49.7605 558.097 49.4474C557.874 49.385 557.755 49.3748 557.254 49.3748C556.758 49.3748 556.632 49.3854 556.42 49.4449C555.532 49.6942 554.945 50.3063 554.754 51.1821C554.679 51.5295 554.701 52.1088 554.803 52.4402C555.028 53.171 555.615 53.7349 556.363 53.9388C556.722 54.0366 556.722 54.0366 557.335 54.0269C557.844 54.0188 557.933 54.0086 558.193 53.9287ZM578.615 53.2139C580.267 53.0299 581.415 52.2425 582.394 50.6202C582.79 49.9654 583.366 48.678 586.174 42.1734C587.338 39.4774 591.267 30.3201 591.333 30.1486C591.346 30.1158 590.804 30.1073 588.688 30.1073C586.59 30.1073 586.024 30.1161 586.011 30.1486C586.002 30.1713 585.116 32.4696 584.042 35.2559C582.968 38.0422 582.079 40.3409 582.067 40.3641C582.053 40.3886 581.139 38.2459 579.887 35.2568L577.73 30.1073H575.025C572.873 30.1073 572.323 30.1158 572.337 30.1486C572.346 30.1713 573.999 33.6661 576.009 37.9148C578.768 43.745 579.661 45.6601 579.649 45.7232C579.627 45.8347 579.092 47.1384 578.827 47.7262C578.356 48.7709 577.937 49.2534 577.374 49.4017C577.024 49.4938 575.937 49.4507 575.369 49.322C575.259 49.2972 575.245 49.3016 575.233 49.3653C575.226 49.4042 575.182 50.1937 575.135 51.1197C575.088 52.0457 575.047 52.8553 575.043 52.9189L575.036 53.0344L575.263 53.0735C575.501 53.1143 576.528 53.2091 576.918 53.2262C577.502 53.2517 578.33 53.2457 578.615 53.2139ZM564.928 46.5487C567.045 46.2587 568.686 45.5387 570.092 44.2836C570.428 43.9837 570.905 43.4459 571.15 43.0898L571.288 42.89L567.674 40.9266L567.597 41.0218C567.166 41.5523 566.805 41.853 566.259 42.138C565.353 42.6099 564.338 42.8122 563.062 42.7745C560.962 42.7124 559.344 41.9241 558.797 40.6973C558.709 40.5006 558.633 40.2421 558.588 39.9863L558.57 39.879H572.123L572.144 39.6232C572.155 39.4824 572.174 38.9885 572.186 38.5255C572.209 37.5889 572.176 37.0647 572.049 36.3632C571.447 33.0208 568.993 30.705 565.334 30.0266C564.567 29.8845 564.249 29.8597 563.208 29.8611C562.372 29.8623 562.135 29.8739 561.683 29.936C560.607 30.0839 559.684 30.3181 558.844 30.6568C555.606 31.9616 553.927 34.547 553.928 38.2284C553.928 40.2754 554.411 41.9239 555.413 43.3012C555.673 43.6573 556.381 44.383 556.736 44.6558C558.164 45.7539 559.971 46.4022 562.186 46.6113C562.749 46.6644 564.351 46.6278 564.928 46.5487ZM558.73 36.6971C558.73 36.5537 558.891 36.0518 559.02 35.789C559.51 34.7992 560.61 34.07 562.024 33.7991C562.357 33.7354 562.522 33.7245 563.16 33.7243C563.967 33.7239 564.211 33.7582 564.788 33.9534C566.137 34.4097 567.205 35.5485 567.269 36.5991L567.279 36.7593L558.73 36.7761V36.6971ZM539.423 41.9505C539.423 39.3623 539.436 37.4995 539.455 37.271C539.521 36.4981 539.653 35.9475 539.894 35.4272C540.399 34.3425 541.284 33.762 542.624 33.6374C543.526 33.5536 544.541 33.6992 545.117 33.9947C545.826 34.3583 546.275 34.9658 546.493 35.855C546.637 36.4453 546.635 36.3627 546.648 41.4058L546.661 46.2504H551.332L551.331 41.1417C551.33 35.2384 551.326 35.1389 551.039 33.9856C550.428 31.5281 548.927 30.2306 546.221 29.8204C545.655 29.7347 543.854 29.7345 543.316 29.8201C541.814 30.0592 540.564 30.5768 539.658 31.3347L539.422 31.5315V24.0331H534.75V46.2504H539.422L539.423 41.9505ZM539.423 67.5681C539.423 65.0019 539.436 63.15 539.455 62.9216C539.521 62.1488 539.653 61.5981 539.894 61.0779C540.399 59.9931 541.284 59.4127 542.624 59.2881C543.526 59.2043 544.541 59.3498 545.117 59.6453C545.826 60.0089 546.275 60.6164 546.493 61.5056C546.637 62.0956 546.635 62.0153 546.648 67.0234L546.661 71.835H539.422L539.423 67.5681Z" fill="#F9FCFF" fill-opacity="0.75"/>
<path d="M4.80522 71.8911C3.57473 71.6241 2.72083 71.1749 1.83691 70.3297C0.868273 69.4034 0.259494 68.254 0.0611121 66.9767C0.0053367 66.6176 -0.00943598 61.3797 0.00541829 47.2329L0.0256463 27.9778L0.183473 27.5106C0.74897 25.8367 1.95667 24.6626 3.62972 24.1603C4.01237 24.0454 5.29929 24.0393 32.5791 24.0229C48.2809 24.0134 61.1279 24.0262 61.1279 24.0512C61.1279 24.0762 59.6963 26.8545 57.9466 30.2253L54.7652 36.3539H12.3395V41.9602H59.5261V54.3075H12.3395V59.7136H59.5261V71.9941L32.3788 71.9888C9.50778 71.9844 5.16436 71.969 4.80522 71.8911ZM64.732 24L71.3228 24.0239C78.5107 24.0498 78.2907 24.039 80.0493 24.4529C82.3869 25.0031 84.7168 26.1446 86.59 27.6575C88.0141 28.8077 88.3436 29.2049 98.0663 41.4931C103.164 47.9353 107.682 53.6102 108.108 54.1038C109.004 55.1434 110.425 56.594 111.051 57.1093L111.485 57.4664L111.518 24.0067H125.534V72L118.743 71.9775C112.12 71.9555 111.932 71.9514 111.151 71.8103C107.588 71.1667 104.524 69.5502 102.17 67.0713C101.69 66.5659 90.2095 52.071 84.052 44.1961C81.7608 41.2658 79.8914 39.3031 78.816 38.6987L78.5424 38.545L78.5809 71.9942L64.732 71.9941L64.732 24ZM153.409 71.8876C151.219 71.4918 149.354 70.1127 148.338 68.1366C148.031 67.5382 127.803 24.1033 127.803 24.0409C127.803 24.0218 131.265 24.0137 135.495 24.023L143.187 24.04L151.202 41.5264C155.611 51.1439 159.288 59.0997 159.374 59.2058C159.753 59.6706 160.514 59.7698 161.038 59.4227C161.258 59.2776 161.365 59.1212 161.631 58.5618C161.81 58.1858 165.449 50.2571 169.718 40.9424L177.48 24.0067H192.808L192.652 24.357C192.057 25.6906 172.572 67.6202 172.313 68.1231C171.441 69.821 170.053 71.0122 168.217 71.6384C167.179 71.9925 167.131 71.9946 160.281 71.9882C155.113 71.9833 153.835 71.9646 153.409 71.8876ZM197.081 24.0067H210.897V71.9941H197.081V24.0067ZM217.905 59.7136H265.625V54.3091L222.81 54.2713L222.343 54.1318C221.141 53.7727 220.197 53.2085 219.461 52.4091C218.941 51.844 218.657 51.4011 218.337 50.658C217.884 49.6013 217.897 49.9036 217.922 41.4931C217.944 33.959 217.945 33.9143 218.092 33.272C218.5 31.4821 219.217 29.9054 220.209 28.6119C222.188 26.0332 225.013 24.4323 228.217 24.0748C228.954 23.9925 279.463 23.9797 279.43 24.0618C279.418 24.0921 277.952 26.8662 276.174 30.2266L272.94 36.3363L252.21 36.3019C240.808 36.283 231.367 36.2885 231.231 36.3141C230.92 36.3725 230.535 36.7056 230.377 37.0542C230.273 37.2826 230.255 37.508 230.254 38.5959C230.253 39.2967 230.272 40.3253 230.296 40.8818L230.34 41.8935H251.281C265.838 41.8935 272.382 41.9154 272.745 41.9652C273.032 42.0046 273.544 42.1283 273.883 42.24C275.708 42.8422 277.172 44.3829 277.722 46.2791L277.872 46.7991V61.7493L277.718 62.5119C276.77 67.1959 273.282 70.7146 268.533 71.778L267.728 71.9584L217.905 71.9957V59.7136ZM278.768 71.5773C280.162 68.5034 299.075 27.85 299.27 27.5086C300.141 25.9804 301.811 24.7236 303.635 24.2233L304.302 24.0403L310.977 24.0401C318.394 24.04 318.015 24.0192 319.284 24.496C320.866 25.0901 322.312 26.3959 323.08 27.9222C323.345 28.449 343.58 71.9204 343.58 71.9626C343.58 71.98 340.119 71.9933 335.888 71.9922L328.196 71.9901L320.187 54.5053C315.782 44.8886 312.105 36.9267 312.016 36.8122C311.823 36.5626 311.398 36.3568 311.077 36.3568C310.776 36.3568 310.357 36.5517 310.133 36.7959C310.029 36.9091 306.667 44.164 301.942 54.4743L293.927 71.9607L278.579 71.9946L278.768 71.5773ZM354.31 71.8924C352.476 71.6408 350.591 70.893 349.053 69.8063C348.24 69.2319 346.877 67.8691 346.301 67.0552C345.374 65.7436 344.681 64.1514 344.329 62.5207L344.147 61.6825V34.1848L344.329 33.3438C344.838 30.9905 345.838 29.1476 347.514 27.4751C348.582 26.4094 349.359 25.8398 350.555 25.2471C351.846 24.6068 353.112 24.2363 354.559 24.0748C354.95 24.0311 363.696 24.0076 379.637 24.0072L404.115 24.0068L397.942 36.354H377.7C359.635 36.354 357.432 36.3651 357.212 36.4567C356.895 36.5892 356.744 36.7296 356.588 37.0355C356.465 37.2756 356.461 37.6249 356.461 48.4984V59.7137H391.234V54.1742H378.353V41.9604H403.581V51.4404C403.581 57.707 403.557 61.1401 403.51 61.5685C402.985 66.3455 399.57 70.3601 394.986 71.5869C393.511 71.9819 395.183 71.9514 374.181 71.9671C358.469 71.9789 354.841 71.9653 354.31 71.8924ZM414.534 71.8912C413.304 71.6242 412.45 71.175 411.566 70.3298C410.597 69.4035 409.989 68.2541 409.79 66.9768C409.734 66.6177 409.72 61.3798 409.734 47.233L409.754 27.9778L409.912 27.5106C410.479 25.8344 411.677 24.6706 413.359 24.1627C413.742 24.0469 414.968 24.041 442.308 24.0238C458.01 24.0138 470.857 24.0263 470.857 24.0512C470.857 24.0762 469.425 26.8546 467.675 30.2253L464.494 36.3539H422.068V41.9602H469.255V54.3075H422.068V59.7136H469.255V71.9941L442.108 71.9889C419.237 71.9844 414.893 71.9691 414.534 71.8912Z" fill="#F9FCFF" fill-opacity="0.74"/>
<path d="M538.422 0.644043V14H537.198V12.128C536.814 12.764 536.304 13.25 535.668 13.586C535.044 13.922 534.336 14.09 533.544 14.09C532.656 14.09 531.852 13.886 531.132 13.478C530.412 13.07 529.848 12.5 529.44 11.768C529.032 11.036 528.828 10.202 528.828 9.26604C528.828 8.33004 529.032 7.49604 529.44 6.76404C529.848 6.03204 530.412 5.46804 531.132 5.07204C531.852 4.66404 532.656 4.46004 533.544 4.46004C534.312 4.46004 535.002 4.62204 535.614 4.94604C536.238 5.25804 536.748 5.72004 537.144 6.33204V0.644043H538.422ZM533.652 12.956C534.312 12.956 534.906 12.806 535.434 12.506C535.974 12.194 536.394 11.756 536.694 11.192C537.006 10.628 537.162 9.98604 537.162 9.26604C537.162 8.54604 537.006 7.90404 536.694 7.34004C536.394 6.77604 535.974 6.34404 535.434 6.04404C534.906 5.73204 534.312 5.57604 533.652 5.57604C532.98 5.57604 532.374 5.73204 531.834 6.04404C531.306 6.34404 530.886 6.77604 530.574 7.34004C530.274 7.90404 530.124 8.54604 530.124 9.26604C530.124 9.98604 530.274 10.628 530.574 11.192C530.886 11.756 531.306 12.194 531.834 12.506C532.374 12.806 532.98 12.956 533.652 12.956Z" fill="#DDDADA"/>
<path d="M550.225 9.66204H542.305C542.377 10.646 542.755 11.444 543.439 12.056C544.123 12.656 544.987 12.956 546.031 12.956C546.619 12.956 547.159 12.854 547.651 12.65C548.143 12.434 548.569 12.122 548.929 11.714L549.649 12.542C549.229 13.046 548.701 13.43 548.065 13.694C547.441 13.958 546.751 14.09 545.995 14.09C545.023 14.09 544.159 13.886 543.403 13.478C542.659 13.058 542.077 12.482 541.657 11.75C541.237 11.018 541.027 10.19 541.027 9.26604C541.027 8.34204 541.225 7.51404 541.621 6.78204C542.029 6.05004 542.581 5.48004 543.277 5.07204C543.985 4.66404 544.777 4.46004 545.653 4.46004C546.529 4.46004 547.315 4.66404 548.011 5.07204C548.707 5.48004 549.253 6.05004 549.649 6.78204C550.045 7.50204 550.243 8.33004 550.243 9.26604L550.225 9.66204ZM545.653 5.55804C544.741 5.55804 543.973 5.85204 543.349 6.44004C542.737 7.01604 542.389 7.77204 542.305 8.70804H549.019C548.935 7.77204 548.581 7.01604 547.957 6.44004C547.345 5.85204 546.577 5.55804 545.653 5.55804Z" fill="#DDDADA"/>
<path d="M560.625 4.53204L556.413 14H555.099L550.905 4.53204H552.237L555.783 12.596L559.365 4.53204H560.625Z" fill="#DDDADA"/>
<path d="M570.405 9.66204H562.485C562.557 10.646 562.935 11.444 563.619 12.056C564.303 12.656 565.167 12.956 566.211 12.956C566.799 12.956 567.339 12.854 567.831 12.65C568.323 12.434 568.749 12.122 569.109 11.714L569.829 12.542C569.409 13.046 568.881 13.43 568.245 13.694C567.621 13.958 566.931 14.09 566.175 14.09C565.203 14.09 564.339 13.886 563.583 13.478C562.839 13.058 562.257 12.482 561.837 11.75C561.417 11.018 561.207 10.19 561.207 9.26604C561.207 8.34204 561.405 7.51404 561.801 6.78204C562.209 6.05004 562.761 5.48004 563.457 5.07204C564.165 4.66404 564.957 4.46004 565.833 4.46004C566.709 4.46004 567.495 4.66404 568.191 5.07204C568.887 5.48004 569.433 6.05004 569.829 6.78204C570.225 7.50204 570.423 8.33004 570.423 9.26604L570.405 9.66204ZM565.833 5.55804C564.921 5.55804 564.153 5.85204 563.529 6.44004C562.917 7.01604 562.569 7.77204 562.485 8.70804H569.199C569.115 7.77204 568.761 7.01604 568.137 6.44004C567.525 5.85204 566.757 5.55804 565.833 5.55804Z" fill="#DDDADA"/>
<path d="M573.024 0.644043H574.302V14H573.024V0.644043Z" fill="#DDDADA"/>
<path d="M581.728 14.09C580.816 14.09 579.994 13.886 579.262 13.478C578.53 13.058 577.954 12.482 577.534 11.75C577.114 11.018 576.904 10.19 576.904 9.26604C576.904 8.34204 577.114 7.51404 577.534 6.78204C577.954 6.05004 578.53 5.48004 579.262 5.07204C579.994 4.66404 580.816 4.46004 581.728 4.46004C582.64 4.46004 583.462 4.66404 584.194 5.07204C584.926 5.48004 585.496 6.05004 585.904 6.78204C586.324 7.51404 586.534 8.34204 586.534 9.26604C586.534 10.19 586.324 11.018 585.904 11.75C585.496 12.482 584.926 13.058 584.194 13.478C583.462 13.886 582.64 14.09 581.728 14.09ZM581.728 12.956C582.4 12.956 583 12.806 583.528 12.506C584.068 12.194 584.488 11.756 584.788 11.192C585.088 10.628 585.238 9.98604 585.238 9.26604C585.238 8.54604 585.088 7.90404 584.788 7.34004C584.488 6.77604 584.068 6.34404 583.528 6.04404C583 5.73204 582.4 5.57604 581.728 5.57604C581.056 5.57604 580.45 5.73204 579.91 6.04404C579.382 6.34404 578.962 6.77604 578.65 7.34004C578.35 7.90404 578.2 8.54604 578.2 9.26604C578.2 9.98604 578.35 10.628 578.65 11.192C578.962 11.756 579.382 12.194 579.91 12.506C580.45 12.806 581.056 12.956 581.728 12.956Z" fill="#DDDADA"/>
<path d="M594.021 4.46004C594.909 4.46004 595.713 4.66404 596.433 5.07204C597.153 5.46804 597.717 6.03204 598.125 6.76404C598.533 7.49604 598.737 8.33004 598.737 9.26604C598.737 10.214 598.533 11.054 598.125 11.786C597.717 12.518 597.153 13.088 596.433 13.496C595.725 13.892 594.921 14.09 594.021 14.09C593.253 14.09 592.557 13.934 591.933 13.622C591.321 13.298 590.817 12.83 590.421 12.218V17.492H589.143V4.53204H590.367V6.40404C590.751 5.78004 591.255 5.30004 591.879 4.96404C592.515 4.62804 593.229 4.46004 594.021 4.46004ZM593.931 12.956C594.591 12.956 595.191 12.806 595.731 12.506C596.271 12.194 596.691 11.756 596.991 11.192C597.303 10.628 597.459 9.98604 597.459 9.26604C597.459 8.54604 597.303 7.91004 596.991 7.35804C596.691 6.79404 596.271 6.35604 595.731 6.04404C595.191 5.73204 594.591 5.57604 593.931 5.57604C593.259 5.57604 592.653 5.73204 592.113 6.04404C591.585 6.35604 591.165 6.79404 590.853 7.35804C590.553 7.91004 590.403 8.54604 590.403 9.26604C590.403 9.98604 590.553 10.628 590.853 11.192C591.165 11.756 591.585 12.194 592.113 12.506C592.653 12.806 593.259 12.956 593.931 12.956Z" fill="#DDDADA"/>
<path d="M609.587 9.66204H601.667C601.739 10.646 602.117 11.444 602.801 12.056C603.485 12.656 604.349 12.956 605.393 12.956C605.981 12.956 606.521 12.854 607.013 12.65C607.505 12.434 607.931 12.122 608.291 11.714L609.011 12.542C608.591 13.046 608.063 13.43 607.427 13.694C606.803 13.958 606.113 14.09 605.357 14.09C604.385 14.09 603.521 13.886 602.765 13.478C602.021 13.058 601.439 12.482 601.019 11.75C600.599 11.018 600.389 10.19 600.389 9.26604C600.389 8.34204 600.587 7.51404 600.983 6.78204C601.391 6.05004 601.943 5.48004 602.639 5.07204C603.347 4.66404 604.139 4.46004 605.015 4.46004C605.891 4.46004 606.677 4.66404 607.373 5.07204C608.069 5.48004 608.615 6.05004 609.011 6.78204C609.407 7.50204 609.605 8.33004 609.605 9.26604L609.587 9.66204ZM605.015 5.55804C604.103 5.55804 603.335 5.85204 602.711 6.44004C602.099 7.01604 601.751 7.77204 601.667 8.70804H608.381C608.297 7.77204 607.943 7.01604 607.319 6.44004C606.707 5.85204 605.939 5.55804 605.015 5.55804Z" fill="#DDDADA"/>
<path d="M620.846 0.644043V14H619.622V12.128C619.238 12.764 618.728 13.25 618.092 13.586C617.468 13.922 616.76 14.09 615.968 14.09C615.08 14.09 614.276 13.886 613.556 13.478C612.836 13.07 612.272 12.5 611.864 11.768C611.456 11.036 611.252 10.202 611.252 9.26604C611.252 8.33004 611.456 7.49604 611.864 6.76404C612.272 6.03204 612.836 5.46804 613.556 5.07204C614.276 4.66404 615.08 4.46004 615.968 4.46004C616.736 4.46004 617.426 4.62204 618.038 4.94604C618.662 5.25804 619.172 5.72004 619.568 6.33204V0.644043H620.846ZM616.076 12.956C616.736 12.956 617.33 12.806 617.858 12.506C618.398 12.194 618.818 11.756 619.118 11.192C619.43 10.628 619.586 9.98604 619.586 9.26604C619.586 8.54604 619.43 7.90404 619.118 7.34004C618.818 6.77604 618.398 6.34404 617.858 6.04404C617.33 5.73204 616.736 5.57604 616.076 5.57604C615.404 5.57604 614.798 5.73204 614.258 6.04404C613.73 6.34404 613.31 6.77604 612.998 7.34004C612.698 7.90404 612.548 8.54604 612.548 9.26604C612.548 9.98604 612.698 10.628 612.998 11.192C613.31 11.756 613.73 12.194 614.258 12.506C614.798 12.806 615.404 12.956 616.076 12.956Z" fill="#DDDADA"/>
<path d="M633.994 4.46004C634.882 4.46004 635.686 4.66404 636.406 5.07204C637.126 5.46804 637.69 6.03204 638.098 6.76404C638.506 7.49604 638.71 8.33004 638.71 9.26604C638.71 10.202 638.506 11.036 638.098 11.768C637.69 12.5 637.126 13.07 636.406 13.478C635.686 13.886 634.882 14.09 633.994 14.09C633.202 14.09 632.488 13.922 631.852 13.586C631.228 13.25 630.724 12.764 630.34 12.128V14H629.116V0.644043H630.394V6.33204C630.79 5.72004 631.294 5.25804 631.906 4.94604C632.53 4.62204 633.226 4.46004 633.994 4.46004ZM633.904 12.956C634.564 12.956 635.164 12.806 635.704 12.506C636.244 12.194 636.664 11.756 636.964 11.192C637.276 10.628 637.432 9.98604 637.432 9.26604C637.432 8.54604 637.276 7.90404 636.964 7.34004C636.664 6.77604 636.244 6.34404 635.704 6.04404C635.164 5.73204 634.564 5.57604 633.904 5.57604C633.232 5.57604 632.626 5.73204 632.086 6.04404C631.558 6.34404 631.138 6.77604 630.826 7.34004C630.526 7.90404 630.376 8.54604 630.376 9.26604C630.376 9.98604 630.526 10.628 630.826 11.192C631.138 11.756 631.558 12.194 632.086 12.506C632.626 12.806 633.232 12.956 633.904 12.956Z" fill="#DDDADA"/>
<path d="M649.008 4.53204L644.274 15.134C643.89 16.022 643.446 16.652 642.942 17.024C642.438 17.396 641.832 17.582 641.124 17.582C640.668 17.582 640.242 17.51 639.846 17.366C639.45 17.222 639.108 17.006 638.82 16.718L639.414 15.764C639.894 16.244 640.47 16.484 641.142 16.484C641.574 16.484 641.94 16.364 642.24 16.124C642.552 15.884 642.84 15.476 643.104 14.9L643.518 13.982L639.288 4.53204H640.62L644.184 12.578L647.748 4.53204H649.008Z" fill="#DDDADA"/>
</g>
</svg>
