<svg width="20" height="24" viewBox="0 0 20 24" fill="none" xmlns="http://www.w3.org/2000/svg">
<path d="M16.0582 2.2921L16.0581 2.29197C15.7069 1.94596 15.2312 1.75 14.7357 1.75H9.9921C8.66319 1.75 7.57663 2.81521 7.57663 4.13355V12.6678C7.57663 13.9861 8.66319 15.0513 9.9921 15.0513H16.4883C17.8172 15.0513 18.9037 13.9861 18.9037 12.6678V5.86373C18.9037 5.37214 18.7034 4.90165 18.3521 4.55553L16.0582 2.2921ZM13.0769 17.4018V17.1518H12.8269H11.2029H10.9529V17.4018V18.4685C10.9529 18.6204 10.8247 18.7519 10.6615 18.7519H4.16529C4.00211 18.7519 3.87394 18.6204 3.87394 18.4685V9.93433C3.87394 9.78252 4.00211 9.65095 4.16529 9.65095H5.24799H5.49799V9.40095V7.80078V7.55078H5.24799H4.16529C2.83637 7.55078 1.74988 8.61599 1.74988 9.93433V18.4685C1.74988 19.7869 2.83637 20.8521 4.16529 20.8521H10.6615C11.9904 20.8521 13.0769 19.7869 13.0769 18.4685V17.4018ZM16.4883 12.9512H9.9921C9.82892 12.9512 9.70074 12.8196 9.70074 12.6678V4.13355C9.70074 3.98174 9.82892 3.85016 9.9921 3.85016H14.6298L16.7796 5.96837V12.6678C16.7796 12.8196 16.6514 12.9512 16.4883 12.9512Z" fill="#838383" stroke="#838383" stroke-width="0.5"/>
</svg>
