<svg width="33" height="34" viewBox="0 0 33 34" fill="none" xmlns="http://www.w3.org/2000/svg">
<path d="M0 0H16C21.5953 0 24.3929 0 26.5696 0.994048C28.9766 2.0933 30.9067 4.02341 32.006 6.43043C33 8.6071 33 11.4047 33 17V17C33 22.5953 33 25.3929 32.006 27.5696C30.9067 29.9766 28.9766 31.9067 26.5696 33.006C24.3929 34 21.5953 34 16 34H0V0Z" fill="#A2A2A2"/>
<path d="M12.7379 27.1809L12.9138 27.3487L13.0865 27.1776L23.176 17.1776L23.3551 17L23.176 16.8224L13.0865 6.82244L12.9138 6.65129L12.7379 6.81913L10.8274 8.64203L10.6414 8.8195L10.824 9.00047L18.8952 17L10.824 24.9995L10.6414 25.1805L10.8274 25.358L12.7379 27.1809Z" fill="white" stroke="white" stroke-width="0.5"/>
</svg>
